<svg xmlns="http://www.w3.org/2000/svg" width="64" height="64" viewBox="0 0 64 64" role="img" aria-labelledby="title desc">
  <title id="title">MindMemOS icon</title>
  <desc id="desc">MindMemOS frontend icon extracted from the React logo component.</desc>
  <defs>
    <filter id="logo-shadow" x="-30%" y="-30%" width="160%" height="170%" color-interpolation-filters="sRGB">
      <feDropShadow dx="0" dy="12" stdDeviation="10" flood-color="#ed2939" flood-opacity="0.24" />
    </filter>
  </defs>
  <rect x="4" y="4" width="56" height="56" rx="8" fill="#ed2939" filter="url(#logo-shadow)" />
  <g transform="translate(17 17) scale(1.25)" fill="none" stroke="#ffffff" stroke-width="2" stroke-linecap="round" stroke-linejoin="round">
    <path d="M12 5a3 3 0 1 0-5.997.125 4 4 0 0 0-2.526 5.77 4 4 0 0 0 .556 6.588A4 4 0 1 0 12 18Z" />
    <path d="M9 13a4.5 4.5 0 0 0 3-4" />
    <path d="M6.003 5.125A3 3 0 0 0 6.401 6.5" />
    <path d="M3.477 10.896a4 4 0 0 1 .585-.396" />
    <path d="M6 18a4 4 0 0 1-1.967-.516" />
    <path d="M12 13h4" />
    <path d="M12 18h6a2 2 0 0 1 2 2v1" />
    <path d="M12 8h8" />
    <path d="M16 8V5a2 2 0 0 1 2-2" />
    <circle cx="16" cy="13" r=".5" />
    <circle cx="18" cy="3" r=".5" />
    <circle cx="20" cy="21" r=".5" />
    <circle cx="20" cy="8" r=".5" />
  </g>
</svg>
